<svg viewBox="0 0 32 32" xmlns="http://www.w3.org/2000/svg" fill="currentColor" aria-hidden="true" class="h-6 w-6" focusable="false" style="fill:currentColor"><path fill-rule="evenodd" clip-rule="evenodd" d="M24.3057 2.89793C25.2038 2.75172 26.2082 2.98818 27.0917 3.87164C27.9751 4.75511 28.2116 5.75947 28.0654 6.65762C27.9293 7.49376 27.4769 8.16564 27.0917 8.55088L15.3712 20.2713L10.692 20.2713V15.5921L22.4124 3.87164C22.7977 3.48641 23.4696 3.03404 24.3057 2.89793ZM24.627 4.87194C24.2932 4.92629 23.9856 5.12693 23.8267 5.28586L22.3571 6.75543L24.2079 8.60623L25.6774 7.13667C25.8364 6.97774 26.037 6.6701 26.0914 6.33627C26.1356 6.06446 26.1 5.7084 25.6775 5.28586C25.2549 4.86332 24.8989 4.8277 24.627 4.87194ZM22.7937 10.0204L20.9429 8.16964L12.692 16.4205V18.2713L14.5428 18.2713L22.7937 10.0204Z"></path><path d="M3.98535 23.6246C3.98535 21.758 5.47127 20.2713 7.27172 20.2713H8.34331V18.2713H7.27172C4.33758 18.2713 1.98535 20.6827 1.98535 23.6246C1.98535 26.4721 4.18906 28.8227 6.99116 28.9706C7.49532 29.0442 8.32129 29.0274 9.17398 28.7832C10.0569 28.5303 11.0711 28.0023 11.7489 26.9607C12.2066 26.2573 12.6114 25.9837 12.8798 25.8656C13.1537 25.7453 13.3811 25.7409 13.6253 25.7409C13.8299 25.7409 14.0786 25.7764 14.3627 25.9265C14.6504 26.0785 15.0285 26.3766 15.4446 26.9818C16.5386 28.5731 17.8935 29.0871 18.7984 28.9777C19.1307 28.9746 19.6015 28.9422 20.1516 28.6461C20.7046 28.3485 21.2544 27.8315 21.8676 27.0165C22.4186 26.2842 22.863 25.9894 23.1454 25.8633C23.4182 25.7416 23.6136 25.7409 23.7971 25.7409C23.9463 25.7409 24.7188 25.8022 25.4051 26.9174C25.9261 27.7641 26.5161 28.3496 27.363 28.6664C28.132 28.9541 29.0234 28.978 30.0003 28.978V26.978C28.9771 26.978 28.4433 26.9352 28.0637 26.7932C27.7621 26.6804 27.4803 26.4735 27.1084 25.8692C26.0087 24.0821 24.541 23.7409 23.7971 23.7409H23.7952C23.5315 23.7409 22.9936 23.7409 22.3302 24.037C21.675 24.3295 20.9783 24.8719 20.2694 25.8141C19.7412 26.5161 19.398 26.7805 19.2038 26.885C19.049 26.9683 18.9479 26.978 18.7244 26.978H18.6342L18.5455 26.9942C18.5569 26.9921 18.5537 26.9916 18.5376 26.9894C18.435 26.9753 17.808 26.8892 17.0927 25.8488C16.5265 25.0252 15.9178 24.4861 15.2968 24.1581C14.6723 23.8282 14.0904 23.7409 13.6253 23.7409L13.6131 23.7409C13.3219 23.7409 12.7437 23.7407 12.0749 24.0348C11.3912 24.3354 10.7044 24.8989 10.0726 25.8699C9.73814 26.3838 9.20822 26.693 8.6233 26.8605C8.02649 27.0314 7.4781 27.0228 7.27172 26.9903V26.978C5.47127 26.978 3.98535 25.4913 3.98535 23.6246Z"></path></svg>